<?xml version="1.0" encoding="utf-8"?>
<!-- Generator: Adobe Illustrator 16.0.0, SVG Export Plug-In . SVG Version: 6.00 Build 0)  -->
<!DOCTYPE svg PUBLIC "-//W3C//DTD SVG 1.1//EN" "http://www.w3.org/Graphics/SVG/1.1/DTD/svg11.dtd">
<svg version="1.1" id="Layer_1" xmlns="http://www.w3.org/2000/svg" xmlns:xlink="http://www.w3.org/1999/xlink" x="0px" y="0px"
	 width="143.436px" height="185.238px" viewBox="0 0 143.436 185.238" enable-background="new 0 0 143.436 185.238"
	 xml:space="preserve">
<g>
	<path fill="#010101" d="M71.719,0c39.607,0,71.717,32.109,71.717,71.719c0,39.611-32.109,71.721-71.717,71.721
		C32.11,143.439,0,111.33,0,71.719C0,32.109,32.11,0,71.719,0L71.719,0z"/>
</g>
<g>
	<path fill="#FFFFFF" d="M38.964,57.56c4.098,23.519,36.793,43.483,80.463,47.11c-15.828-22.354-33.774-53.138-47.482-67.065
		C58.238,23.678,34.867,34.041,38.964,57.56L38.964,57.56z"/>
</g>
<g>
	<path fill="#FFFFFF" d="M20.828,25.932c1.578-1.47,1.301-1.169,2.51-2.755c8.018-10.512,20.268-14.833,32.547,1.24
		c-42.023,11.273-25.068,73.49,38.928,81.326c1.069,4.917,3.334,10.03,4.403,14.94c-41.26,7.885-83.363-23.142-73.649-94.766
		L20.828,25.932L20.828,25.932z"/>
</g>
<g>
	<path fill="#FFFFFF" d="M131.263,111.841l-29.257-4.838l10.046,24.024C119.609,125.915,126.138,119.393,131.263,111.841
		L131.263,111.841z"/>
	<path fill="#FFFFFF" d="M111.87,131.638l-10.518-25.151l30.598,5.06l-0.354,0.521c-5.184,7.638-11.683,14.129-19.319,19.294
		L111.87,131.638z M102.659,107.52l9.574,22.896c7.201-4.943,13.366-11.089,18.339-18.28L102.659,107.52z"/>
</g>
<g>
	<path fill="#9FA0A4" d="M32.73,20.668c0.897,0,1.625,0.735,1.625,1.642c0,0.906-0.728,1.641-1.625,1.641s-1.627-0.735-1.627-1.641
		C31.103,21.403,31.832,20.668,32.73,20.668L32.73,20.668z"/>
</g>
<g>
	<path fill="#010101" d="M12.245,184.552v-26.336h3.269v13.121l15.08-13.121h4.283l-10.627,9.358l12.234,16.979h-3.949
		l-10.644-14.711l-6.379,5.359v9.352L12.245,184.552L12.245,184.552z M55.307,182.167c2.953,0,5.4-1.006,7.344-3.026
		c1.935-2.014,2.9-4.576,2.9-7.672c0-3.105-0.967-5.675-2.893-7.691c-1.926-2.016-4.381-3.023-7.353-3.023
		c-2.949,0-5.397,1.018-7.338,3.04c-1.938,2.024-2.904,4.585-2.904,7.675c0,3.096,0.968,5.658,2.904,7.672
		C49.908,181.16,52.357,182.167,55.307,182.167L55.307,182.167z M55.299,185.238c-3.941,0-7.191-1.299-9.754-3.896
		c-2.561-2.589-3.844-5.879-3.844-9.874c0-4,1.283-7.302,3.858-9.895c2.568-2.593,5.814-3.894,9.738-3.894
		c3.938,0,7.194,1.301,9.789,3.911c2.586,2.599,3.877,5.894,3.877,9.876c0,3.995-1.291,7.284-3.869,9.874
		C62.52,183.939,59.252,185.238,55.299,185.238L55.299,185.238z M79.42,184.552v-26.286h20.682v3.025h-17.41v7.706h10.535v3.022
		H82.691v9.514h18.482v3.02L79.42,184.552L79.42,184.552z M110.754,184.552v-26.286h3.268v23.268h17.17v3.02L110.754,184.552
		L110.754,184.552z"/>
</g>
</svg>
