<?xml version="1.0" encoding="iso-8859-1"?>
<!-- Generator: Adobe Illustrator 16.0.0, SVG Export Plug-In . SVG Version: 6.00 Build 0)  -->
<!DOCTYPE svg PUBLIC "-//W3C//DTD SVG 1.1//EN" "http://www.w3.org/Graphics/SVG/1.1/DTD/svg11.dtd">
<svg version="1.1" id="Layer_1" xmlns="http://www.w3.org/2000/svg" xmlns:xlink="http://www.w3.org/1999/xlink" x="0px" y="0px"
	 width="344px" height="186px" viewBox="0 0 344 186" style="enable-background:new 0 0 344 186;" xml:space="preserve">
<g>
	<path style="fill-rule:evenodd;clip-rule:evenodd;fill:#A0A1A5;" d="M72.463,0c39.607,0,71.717,32.109,71.717,71.719
		c0,39.611-32.109,71.72-71.717,71.72c-39.609,0-71.719-32.109-71.719-71.72C0.744,32.109,32.854,0,72.463,0L72.463,0z"/>
	<path style="fill-rule:evenodd;clip-rule:evenodd;fill:#FFFFFF;" d="M39.708,57.56c4.098,23.519,36.793,43.483,80.463,47.11
		c-15.828-22.354-33.775-53.138-47.482-67.065C58.982,23.678,35.611,34.041,39.708,57.56L39.708,57.56z"/>
	<path style="fill-rule:evenodd;clip-rule:evenodd;fill:#FFFFFF;" d="M21.572,25.932c1.578-1.47,1.301-1.169,2.51-2.755
		C32.1,12.665,44.35,8.344,56.629,24.417c-42.023,11.273-25.068,73.49,38.928,81.326c1.069,4.917,3.334,10.03,4.403,14.94
		c-41.26,7.886-83.363-23.141-73.649-94.765L21.572,25.932L21.572,25.932z"/>
	<path style="fill-rule:evenodd;clip-rule:evenodd;fill:#FFFFFF;stroke:#FFFFFF;stroke-width:0.8068;stroke-miterlimit:2.6131;" d="
		M132.007,111.841l-29.257-4.838l10.046,24.024C120.353,125.915,126.882,119.392,132.007,111.841L132.007,111.841z"/>
	<path style="fill-rule:evenodd;clip-rule:evenodd;fill:#A0A1A5;" d="M33.474,20.668c0.897,0,1.625,0.735,1.625,1.642
		c0,0.906-0.728,1.641-1.625,1.641s-1.627-0.735-1.627-1.641C31.847,21.403,32.576,20.668,33.474,20.668L33.474,20.668z"/>
	<path style="fill:#A0A1A5;stroke:#A0A1A5;stroke-width:0.8068;stroke-miterlimit:2.6131;" d="M172.276,104.552V78.216h3.269v13.121
		l15.08-13.121h4.283l-10.627,9.358l12.234,16.979h-3.949l-10.643-14.711l-6.379,5.359v9.352H172.276L172.276,104.552z
		 M215.338,102.167c2.953,0,5.4-1.006,7.344-3.027c1.934-2.013,2.9-4.575,2.9-7.671c0-3.106-0.967-5.675-2.893-7.691
		c-1.926-2.016-4.381-3.024-7.352-3.024c-2.949,0-5.398,1.018-7.338,3.04c-1.938,2.025-2.904,4.585-2.904,7.675
		c0,3.096,0.967,5.658,2.904,7.671C209.939,101.16,212.389,102.167,215.338,102.167L215.338,102.167z M215.33,105.238
		c-3.941,0-7.191-1.298-9.754-3.896c-2.561-2.589-3.844-5.879-3.844-9.874c0-4,1.283-7.302,3.859-9.895
		c2.568-2.592,5.814-3.893,9.738-3.893c3.938,0,7.195,1.3,9.789,3.911c2.586,2.599,3.877,5.893,3.877,9.876
		c0,3.995-1.291,7.284-3.869,9.874C222.551,103.94,219.283,105.238,215.33,105.238L215.33,105.238z M239.451,104.552V78.265h20.682
		v3.026h-17.41v7.706h10.535v3.022h-10.535v9.514h18.482v3.02H239.451L239.451,104.552z M270.785,104.552V78.265h3.268v23.268h17.17
		v3.02H270.785L270.785,104.552z"/>
	<path style="fill:#231F20;" d="M242.963,171.898l-0.068-0.059c-0.404-1.204-1.311-1.81-2.711-1.81c-0.27,0-0.496,0.007-0.676,0.029
		c-0.182,0.015-0.338,0.044-0.473,0.08c-2.711,0.584-5.148,0.992-7.314,1.233c-2.17,0.24-4.133,0.357-5.891,0.357
		c-1.086,0-2.123-0.036-3.119-0.109c-0.992-0.073-1.963-0.183-2.91-0.329c-1.672-0.183-2.934-0.54-3.791-1.072
		c-0.861-0.532-1.492-1.16-1.896-1.89c-0.318-0.664-0.475-1.489-0.475-2.473c0-1.058,0.168-2.152,0.508-3.269
		c0.338-1.116,0.732-2.204,1.184-3.262c0.68-1.575,1.693-3.152,3.047-4.72c1.357-1.576,2.846-3.056,4.473-4.443
		c1.623-1.394,3.316-2.647,5.078-3.764c1.762-1.117,3.406-2.036,4.941-2.772c0.092,0.036,0.25,0.058,0.475,0.058
		c1.311,0,2.35-0.532,3.115-1.591h-0.066c0.541-0.7,0.814-1.408,0.814-2.144c0-0.767-0.316-1.409-0.953-1.919
		c-0.451-0.365-1.035-0.548-1.758-0.548c-0.812,0-1.648,0.197-2.506,0.599c-2.031,0.883-4.164,2.013-6.398,3.407
		c-2.236,1.387-4.369,2.933-6.402,4.641c-2.031,1.699-3.879,3.501-5.551,5.406c-1.67,1.896-3.002,3.802-3.996,5.705
		c-0.768,1.466-1.377,2.947-1.83,4.443c-0.451,1.503-0.674,2.969-0.674,4.392c0,0.802,0.088,1.59,0.27,2.363
		c0.18,0.767,0.475,1.495,0.879,2.196c0.723,1.423,1.865,2.611,3.422,3.56c1.559,0.956,3.805,1.672,6.738,2.146
		c2.076,0.328,4.516,0.496,7.312,0.496c2.168,0,4.469-0.131,6.91-0.387c2.438-0.255,5.033-0.657,7.787-1.211
		c0.9-0.183,1.568-0.488,1.996-0.927c0.43-0.444,0.646-0.955,0.646-1.539c0-0.183-0.012-0.335-0.037-0.468
		C243.041,172.175,243.008,172.044,242.963,171.898L242.963,171.898z M285.244,166.681v-0.058c-0.635-0.583-1.377-0.875-2.234-0.875
		c-0.449,0-0.949,0.109-1.49,0.328c-0.494,0.219-1.094,0.438-1.795,0.656c-0.699,0.22-1.422,0.431-2.166,0.636
		c-0.744,0.203-1.48,0.371-2.203,0.518c-0.723,0.146-1.354,0.254-1.893,0.328h-0.273c-0.496,0-0.902-0.088-1.219-0.271
		c-0.314-0.183-0.588-0.532-0.814-1.044c-0.135-0.254-0.225-0.583-0.268-0.983c-0.045-0.409-0.07-0.861-0.07-1.38v-0.816
		c0-0.919-0.291-1.591-0.879-2.035c-0.588-0.438-1.332-0.657-2.238-0.657c-1.082,0-2.209,0.292-3.383,0.876v-0.051
		c-0.723,0.364-1.547,0.831-2.471,1.399c-0.926,0.562-1.875,1.16-2.846,1.78c-0.969,0.621-1.918,1.256-2.844,1.897
		c-0.924,0.642-1.752,1.196-2.471,1.671l-0.812,0.495c-0.496,0.329-0.883,0.496-1.154,0.496c-0.09,0-0.135-0.042-0.135-0.116
		c-0.043-0.029-0.064-0.175-0.064-0.438c0-0.254,0.033-0.525,0.098-0.823c0.07-0.292,0.172-0.525,0.307-0.708
		c0.453-0.773,1.072-1.583,1.861-2.444c0.791-0.86,1.648-1.685,2.576-2.473c0.922-0.781,1.857-1.503,2.807-2.167
		c0.949-0.657,1.828-1.204,2.643-1.641c1.717-0.956,3.205-1.43,4.471-1.43c0.404,0,0.801,0.042,1.186,0.138
		c0.383,0.087,0.732,0.248,1.049,0.466c0.586,0.33,1.217,0.49,1.896,0.49c0.631,0,1.207-0.117,1.725-0.351
		c0.521-0.241,0.938-0.562,1.254-0.963c0.271-0.364,0.406-0.788,0.406-1.262c0-0.292-0.088-0.606-0.271-0.935
		c-0.178-0.328-0.496-0.642-0.947-0.934c-0.949-0.619-1.887-1.073-2.809-1.342c-0.928-0.277-1.838-0.416-2.744-0.416
		c-1.67,0-3.25,0.32-4.742,0.963c-1.488,0.642-2.775,1.233-3.859,1.78c-0.947,0.518-1.973,1.137-3.082,1.866
		c-1.105,0.737-2.199,1.548-3.283,2.445c-1.082,0.897-2.111,1.86-3.082,2.881c-0.969,1.022-1.795,2.088-2.473,3.182
		c-0.945,1.467-1.467,3.02-1.555,4.669c0,1.794,0.631,3.13,1.893,4.005c0.996,0.693,2.193,1.043,3.59,1.043
		c1.672,0,3.477-0.568,5.42-1.7c0.541-0.371,1.096-0.742,1.66-1.13c0.562-0.379,1.162-0.773,1.795-1.175
		c0.992-0.7,1.93-1.349,2.811-1.947c0.879-0.606,1.611-1.058,2.199-1.35c0.135-0.11,0.273-0.161,0.408-0.161
		c0,0.547,0.135,1.16,0.404,1.838c0.27,0.679,0.564,1.197,0.879,1.562v-0.051c0.727,0.838,1.525,1.451,2.404,1.838
		c0.883,0.379,2.064,0.575,3.557,0.575c0.227,0,0.496,0,0.814,0c0.312,0,0.631-0.021,0.947-0.058
		c1.67-0.145,3.477-0.502,5.416-1.072c1.941-0.562,3.682-1.175,5.213-1.839c0.502-0.255,0.883-0.583,1.154-0.984
		c0.273-0.401,0.404-0.824,0.404-1.263C285.92,167.652,285.697,167.156,285.244,166.681L285.244,166.681z M313.578,139.841v-0.05
		c0.043-0.183,0.064-0.518,0.064-0.993c0-0.146,0-0.292,0-0.438c0-0.182-0.021-0.364-0.064-0.546v0.05
		c-0.049-0.584-0.242-1.174-0.576-1.779c-0.34-0.606-0.805-1.146-1.391-1.62c-0.588-0.474-1.299-0.861-2.135-1.152
		c-0.832-0.292-1.795-0.438-2.877-0.438c-1.037,0-2.043,0.138-3.014,0.408c-0.971,0.277-1.896,0.613-2.775,1.014
		c-0.879,0.409-1.672,0.832-2.371,1.291c-0.701,0.46-1.273,0.869-1.727,1.233c-0.766,0.664-1.48,1.394-2.133,2.196
		c-0.652,0.811-1.299,1.686-1.93,2.634c-1.039,1.722-1.887,3.59-2.539,5.604c-0.658,2.013-1.164,4.057-1.525,6.143
		c-0.27,0.036-0.551,0.065-0.846,0.087c-0.293,0.016-0.555,0.022-0.777,0.022c-0.408,0.037-0.871,0.072-1.389,0.109
		c-0.521,0.036-0.781,0.059-0.781,0.059h0.07c-0.994,0.109-1.73,0.424-2.201,0.934c-0.475,0.511-0.711,1.043-0.711,1.59v0.109
		c0,0.621,0.236,1.175,0.711,1.648c0.471,0.475,1.207,0.715,2.201,0.715h0.133c1.041,0,2.033-0.058,2.98-0.167
		c-0.135,1.131-0.225,2.342-0.27,3.626c-0.049,1.276-0.07,2.612-0.07,4.005c0,1.423,0.033,2.868,0.104,4.334
		c0.068,1.466,0.182,2.89,0.338,4.283c0.158,1.386,0.373,2.721,0.643,4.005c0.273,1.277,0.588,2.43,0.949,3.458
		c0.359,0.839,0.791,1.524,1.287,2.058c0.496,0.532,1.127,0.978,1.898,1.343c0.494,0.255,1.104,0.386,1.826,0.386
		s1.467-0.276,2.236-0.824c0.631-0.511,0.943-1.058,0.943-1.648c0-0.438-0.156-0.897-0.469-1.372
		c-0.139-0.183-0.285-0.357-0.441-0.518c-0.158-0.169-0.281-0.307-0.377-0.416c-0.404-0.255-0.674-0.548-0.809-0.876
		c-0.271-0.547-0.508-1.32-0.711-2.306c-0.201-0.984-0.395-2.13-0.578-3.429c-0.182-1.298-0.312-2.706-0.404-4.224
		c-0.092-1.525-0.135-3.086-0.135-4.698c0-1.24,0.021-2.51,0.064-3.809c0.049-1.299,0.162-2.59,0.34-3.873
		c0.453-0.038,0.938-0.073,1.455-0.11c0.523-0.036,1.029-0.087,1.525-0.16c1.445-0.146,2.934-0.285,4.469-0.416
		c1.535-0.124,3.027-0.299,4.473-0.518h-0.07c0.949-0.109,1.65-0.438,2.098-0.992c0.453-0.548,0.68-1.095,0.68-1.643
		c0-0.626-0.248-1.174-0.746-1.648c-0.494-0.474-1.195-0.715-2.1-0.715c-0.088,0-0.178,0.007-0.271,0.029
		c-0.086,0.015-0.178,0.029-0.268,0.029c-1.807,0.183-3.602,0.343-5.385,0.488c-1.783,0.146-3.467,0.3-5.045,0.446
		c0.361-1.686,0.791-3.276,1.287-4.779c0.496-1.502,1.127-2.889,1.893-4.173c0.408-0.62,0.883-1.247,1.428-1.889
		c0.539-0.642,1.057-1.16,1.553-1.568c0.77-0.62,1.58-1.138,2.441-1.562c0.857-0.423,1.602-0.649,2.232-0.686h0.135
		c0.496,0,0.861,0.277,1.082,0.825v-0.058c0,0.036,0.012,0.066,0.037,0.087c0.021,0.015,0.033,0.021,0.033,0.021
		c0.045,0.11,0.066,0.241,0.066,0.387c0,0.219,0.068,0.438,0.205,0.657l-0.066-0.051c0.135,0.62,0.447,1.086,0.943,1.4
		c0.5,0.307,1.066,0.467,1.697,0.467c0.088,0,0.156-0.015,0.203-0.03c0.045-0.022,0.111-0.029,0.201-0.029
		c0.631,0,1.244-0.175,1.83-0.518C312.943,140.95,313.352,140.461,313.578,139.841L313.578,139.841z M341.975,166.952v0.059
		c-0.27-0.402-0.619-0.745-1.051-1.015c-0.426-0.277-0.934-0.416-1.525-0.416c-0.221,0-0.402,0.014-0.539,0.028
		c-0.135,0.022-0.27,0.045-0.404,0.081c-0.451,0.109-0.959,0.262-1.525,0.444c-0.564,0.183-1.164,0.365-1.795,0.547
		c-1.854,0.548-3.918,1.116-6.197,1.7c-2.279,0.585-4.457,0.876-6.533,0.876c-0.857,0-1.627-0.072-2.301-0.22
		c-0.68-0.071-1.219-0.276-1.627-0.626c-0.404-0.351-0.609-0.796-0.609-1.343c1.537-0.153,3.127-0.488,4.775-1.021
		c1.648-0.524,3.18-1.204,4.602-2.028c1.424-0.824,2.664-1.743,3.725-2.772c1.062-1.021,1.795-2.102,2.205-3.238
		c0.27-0.767,0.404-1.643,0.404-2.634c0-0.912-0.189-1.773-0.576-2.575c-0.383-0.811-1.072-1.452-2.064-1.927
		c-0.906-0.475-1.988-0.708-3.25-0.708c-0.906,0-1.783,0.088-2.643,0.271c-0.855,0.182-1.605,0.422-2.234,0.715h0.068
		c-1.627,0.656-3.523,2.063-5.689,4.225c-1.037,1.101-2.088,2.451-3.148,4.062c-1.062,1.604-1.816,3.458-2.27,5.546
		c-0.092,0.327-0.158,0.663-0.199,1.014c-0.049,0.343-0.07,0.7-0.07,1.072c0,2.006,0.834,3.655,2.506,4.938
		c1.219,1.021,2.842,1.643,4.877,1.861c1.037,0.146,2.162,0.219,3.381,0.219c1.449,0,2.893-0.095,4.338-0.3
		c1.445-0.204,2.83-0.459,4.162-0.767c1.336-0.313,2.598-0.648,3.793-1.014c1.197-0.372,2.27-0.7,3.217-0.991
		c0.498-0.184,0.949-0.329,1.355-0.438c0.408-0.109,0.791-0.219,1.152-0.328h-0.07c0.723-0.182,1.244-0.475,1.561-0.875
		c0.316-0.408,0.473-0.824,0.473-1.27C342.246,167.63,342.156,167.251,341.975,166.952L341.975,166.952z M327.279,156.854v-0.05
		c-0.18,0.51-0.529,1.014-1.049,1.509c-0.521,0.49-1.141,0.949-1.863,1.372c-0.723,0.417-1.5,0.796-2.334,1.124
		c-0.836,0.329-1.682,0.605-2.543,0.824c0.453-0.956,1.039-1.853,1.762-2.691s1.467-1.576,2.236-2.196
		c0.723-0.621,1.332-1.044,1.828-1.263h-0.066c0.223-0.073,0.471-0.152,0.744-0.248c0.27-0.087,0.518-0.131,0.744-0.131
		c0.27,0,0.453,0.029,0.541,0.109c0.047,0.073,0.09,0.168,0.137,0.3c0.045,0.124,0.066,0.246,0.066,0.357
		C327.482,156.089,327.416,156.416,327.279,156.854L327.279,156.854z"/>
	
		<line style="fill:none;stroke:#0B0B0B;stroke-width:4.4821;stroke-miterlimit:2.6131;" x1="146.702" y1="125.666" x2="343.256" y2="125.666"/>
</g>
</svg>
